<?xml version="1.0" standalone="no"?>
<!DOCTYPE svg PUBLIC "-//W3C//DTD SVG 20010904//EN"
 "http://www.w3.org/TR/2001/REC-SVG-20010904/DTD/svg10.dtd">
<svg version="1.0" xmlns="http://www.w3.org/2000/svg"
 width="300.000000pt" height="300.000000pt" viewBox="0 0 300.000000 300.000000"
 preserveAspectRatio="xMidYMid meet">
<metadata>
Created by potrace 1.10, written by Peter Selinger 2001-2011
</metadata>
<g transform="translate(0.000000,300.000000) scale(0.100000,-0.100000)"
fill="#000000" stroke="none">
<path d="M1616 2339 c-3 -8 -15 -47 -26 -88 -12 -40 -24 -79 -26 -86 -7 -16
113 -52 127 -38 7 7 -5 14 -40 23 -52 12 -56 17 -44 58 6 25 13 25 81 6 16 -5
22 -2 22 9 0 9 -14 17 -37 22 -21 4 -41 9 -45 11 -6 4 10 64 17 64 1 0 22 -7
45 -15 52 -18 50 -18 50 -1 0 8 -19 18 -44 25 -24 6 -51 13 -60 17 -9 3 -18 0
-20 -7z"/>
<path d="M1193 2290 c-29 -15 -58 -30 -64 -32 -7 -2 -9 -10 -5 -16 5 -9 14 -8
36 3 l30 15 40 -80 c22 -44 44 -80 48 -80 23 0 19 19 -18 87 -22 41 -40 78
-40 82 0 4 11 13 25 19 26 12 34 32 13 31 -7 0 -36 -13 -65 -29z"/>
<path d="M1370 2297 c-68 -35 -43 -151 33 -151 55 0 80 28 74 83 -3 23 -11 49
-18 56 -22 21 -62 26 -89 12z m70 -36 c24 -46 6 -91 -37 -91 -37 0 -59 70 -31
98 18 18 56 14 68 -7z"/>
<path d="M1746 2179 c-20 -87 -20 -98 -2 -105 14 -5 136 78 137 93 1 18 -19
10 -68 -27 -58 -43 -60 -41 -38 39 8 30 12 58 9 63 -13 20 -23 3 -38 -63z"/>
<path d="M1048 2124 c-3 -3 -2 -22 3 -42 5 -20 9 -41 9 -45 0 -5 -23 10 -51
33 -33 29 -53 40 -60 33 -7 -7 19 -34 78 -81 58 -47 91 -67 98 -61 7 7 0 18
-20 32 l-30 22 54 5 c34 3 56 10 59 19 4 11 -6 12 -52 7 -54 -7 -56 -7 -56 16
0 49 -16 79 -32 62z"/>
<path d="M1863 2091 c-35 -22 -48 -50 -39 -87 7 -28 50 -59 71 -50 21 8 19 26
-3 26 -24 0 -42 19 -42 46 0 49 21 40 77 -35 10 -14 13 -14 32 3 27 24 27 70
1 96 -25 25 -56 25 -97 1z m82 -21 c17 -19 15 -50 -4 -50 -13 0 -52 56 -44 64
12 11 30 6 48 -14z"/>
<path d="M952 1977 c-36 -38 -28 -88 19 -112 39 -21 75 -19 100 6 26 26 23 82
-4 87 -16 3 -17 1 -8 -16 16 -30 14 -40 -13 -57 -22 -15 -27 -15 -54 -1 -16 8
-32 21 -34 28 -8 20 10 58 27 58 8 0 15 7 15 15 0 22 -23 18 -48 -8z"/>
<path d="M1953 1952 c-35 -14 -63 -31 -63 -39 0 -17 0 -17 56 8 58 24 98 14
92 -24 -2 -16 -17 -27 -58 -44 -55 -22 -77 -43 -43 -43 10 0 43 13 73 28 62
30 74 58 41 91 -11 11 -18 27 -15 36 8 21 -9 18 -83 -13z"/>
<path d="M1475 1760 c0 -153 3 -200 13 -200 9 0 12 47 12 200 0 153 -3 200
-12 200 -10 0 -13 -47 -13 -200z"/>
<path d="M1260 1893 c-1 -2 -1 -45 -1 -95 -1 -84 1 -93 18 -93 15 0 17 7 15
38 -3 34 -1 37 22 37 21 0 27 -7 36 -40 8 -30 16 -40 31 -40 22 0 21 17 -6 72
-11 23 -11 29 1 39 17 14 18 53 2 67 -11 8 -117 22 -118 15z m96 -45 c9 -15
-16 -38 -42 -38 -18 0 -24 5 -24 23 0 13 2 26 5 29 8 8 54 -3 61 -14z"/>
<path d="M1590 1786 c0 -81 1 -86 21 -86 20 0 21 3 14 58 -8 65 3 63 26 -6 23
-67 43 -66 67 5 l20 58 1 -57 c1 -48 4 -58 19 -58 15 0 17 11 17 85 0 85 0 86
-24 83 -20 -2 -28 -14 -46 -66 l-21 -64 -20 64 c-17 55 -23 63 -47 66 l-27 3
0 -85z"/>
<path d="M835 1840 c-8 -14 3 -30 21 -30 8 0 14 9 14 20 0 21 -24 28 -35 10z"/>
<path d="M895 1821 c-3 -5 21 -15 52 -21 32 -6 68 -14 81 -17 15 -3 22 -1 22
9 0 10 -20 18 -64 26 -76 14 -83 15 -91 3z"/>
<path d="M2070 1805 c0 -10 -17 -16 -60 -21 -45 -5 -63 -12 -71 -26 -11 -21
-3 -58 12 -58 6 0 3 -10 -5 -22 -25 -35 -20 -76 8 -90 34 -15 54 -4 72 37 8
19 19 35 24 35 17 0 24 -31 11 -52 -15 -23 -5 -44 14 -28 39 32 23 100 -23
100 -23 0 -32 -7 -45 -36 -12 -24 -23 -34 -35 -32 -20 4 -19 48 2 62 11 8 11
14 -3 37 -20 35 -13 41 49 49 46 6 49 5 52 -17 4 -31 24 -29 21 3 -1 18 3 24
18 24 12 0 19 5 16 13 -2 6 -11 11 -21 9 -9 -2 -16 4 -16 13 0 8 -4 15 -10 15
-5 0 -10 -7 -10 -15z"/>
<path d="M1020 1749 c0 -6 -34 -9 -97 -8 -132 2 -134 -16 -3 -26 73 -5 105 -3
115 5 19 16 19 40 0 40 -8 0 -15 -5 -15 -11z"/>
<path d="M975 1680 c-3 -6 5 -14 19 -20 27 -10 42 -46 32 -78 -14 -42 -100
-59 -136 -27 -21 19 -27 69 -10 80 15 9 12 25 -5 25 -8 0 -19 -9 -25 -19 -32
-60 17 -131 90 -131 82 0 133 56 111 123 -7 20 -22 39 -37 46 -30 13 -31 14
-39 1z"/>
</g>
</svg>
